HIERARCHY
ROOT hip
{
	OFFSET 0.000000 103.560692 0.219151
	CHANNELS 6 Xposition Yposition Zposition Zrotation Xrotation Yrotation
	JOINT pelvis
	{
		OFFSET 0.000000 1.955040 1.591925
		CHANNELS 3 Zrotation Xrotation Yrotation
		JOINT lThigh
		{
			OFFSET 8.341582 -7.629402 -0.646910
			CHANNELS 3 Zrotation Xrotation Yrotation
			JOINT lShin
			{
				OFFSET 2.185763 -45.093132 -0.705710
				CHANNELS 3 Zrotation Xrotation Yrotation
				JOINT lFoot
				{
					OFFSET 0.730976 -46.379768 -2.264282
					CHANNELS 3 Zrotation Xrotation Yrotation
					JOINT lToe
					{
						OFFSET 2.797621 -4.200020 10.742415
						CHANNELS 3 Zrotation Xrotation Yrotation
						JOINT lBigToe
						{
							OFFSET -2.433708 -0.269072 1.841711
							CHANNELS 3 Zrotation Xrotation Yrotation
							End Site
							{
								OFFSET -10.527346 -33.657166 -1.340707
							}
						}
					}
				}
			}
		}
		JOINT rThigh
		{
			OFFSET -8.341582 -7.629402 -0.646910
			CHANNELS 3 Zrotation Xrotation Yrotation
			JOINT rShin
			{
				OFFSET -2.185763 -45.093132 -0.705710
				CHANNELS 3 Zrotation Xrotation Yrotation
				JOINT rFoot
				{
					OFFSET -0.730976 -46.379768 -2.264282
					CHANNELS 3 Zrotation Xrotation Yrotation
					JOINT rToe
					{
						OFFSET -2.797621 -4.200019 10.742415
						CHANNELS 3 Zrotation Xrotation Yrotation
						JOINT rBigToe
						{
							OFFSET 2.433708 -0.269072 1.841711
							CHANNELS 3 Zrotation Xrotation Yrotation
							End Site
							{
								OFFSET 0.000000 24.298409 -0.425647
							}
						}
					}
				}
			}
		}
	}
	JOINT abdomen
	{
		OFFSET 0.000000 1.841293 -3.551421
		CHANNELS 3 Zrotation Xrotation Yrotation
		JOINT abdomen2
		{
			OFFSET 0.000000 5.439911 3.419600
			CHANNELS 3 Zrotation Xrotation Yrotation
			JOINT chest
			{
				OFFSET 0.000000 14.715073 -2.918270
				CHANNELS 3 Zrotation Xrotation Yrotation
				JOINT neck
				{
					OFFSET 0.000000 26.294655 -1.248052
					CHANNELS 3 Zrotation Xrotation Yrotation
					JOINT head
					{
						OFFSET 0.000000 8.807068 1.063695
						CHANNELS 3 Zrotation Xrotation Yrotation
						JOINT rEye
						{
							OFFSET -3.030866 6.632080 7.702687
							CHANNELS 3 Zrotation Xrotation Yrotation
							End Site
							{
								OFFSET 2.969555 -11.022598 8.626689
							}
						}
						JOINT lEye
						{
							OFFSET 3.030866 6.632080 7.702687
							CHANNELS 3 Zrotation Xrotation Yrotation
							End Site
							{
								OFFSET 0.000000 -15.881760 10.104412
							}
						}
						JOINT upperJaw
						{
							OFFSET 0.000000 1.922699 2.891887
							CHANNELS 3 Zrotation Xrotation Yrotation
							End Site
							{
								OFFSET 0.000000 -19.386169 10.230839
							}
						}
						JOINT lowerJaw
						{
							OFFSET 0.000000 1.857620 2.686640
							CHANNELS 3 Zrotation Xrotation Yrotation
							JOINT tongueBase
							{
								OFFSET 0.000000 -3.019135 2.746916
								CHANNELS 3 Zrotation Xrotation Yrotation
								JOINT tongue01
								{
									OFFSET 0.000000 0.664124 0.223355
									CHANNELS 3 Zrotation Xrotation Yrotation
									JOINT tongue02
									{
										OFFSET 0.000000 0.339737 0.715627
										CHANNELS 3 Zrotation Xrotation Yrotation
										JOINT tongue03
										{
											OFFSET 0.000000 0.123444 0.730634
											CHANNELS 3 Zrotation Xrotation Yrotation
											JOINT tongue04
											{
												OFFSET 0.000000 0.017212 0.737415
												CHANNELS 3 Zrotation Xrotation Yrotation
												JOINT tongue05
												{
													OFFSET 0.000000 -0.021011 0.632440
													CHANNELS 3 Zrotation Xrotation Yrotation
													JOINT tongueTip
													{
														OFFSET 0.000000 -0.014404 0.601796
														CHANNELS 3 Zrotation Xrotation Yrotation
														End Site
														{
															OFFSET -14.139406 -2.625778 0.472826
														}
													}
												}
											}
										}
									}
								}
							}
						}
					}
				}
				JOINT rCollar
				{
					OFFSET -2.109295 21.452370 3.768136
					CHANNELS 3 Zrotation Xrotation Yrotation
					JOINT rShldr
					{
						OFFSET -11.491621 -2.568573 -4.940255
						CHANNELS 3 Zrotation Xrotation Yrotation
						JOINT rForeArm
						{
							OFFSET -28.789030 -0.213806 2.098380
							CHANNELS 3 Zrotation Xrotation Yrotation
							JOINT rHand
							{
								OFFSET -22.260895 -0.869583 10.391586
								CHANNELS 3 Zrotation Xrotation Yrotation
								JOINT rThumb1
								{
									OFFSET -0.628075 0.137405 2.362409
									CHANNELS 3 Zrotation Xrotation Yrotation
									JOINT rThumb2
									{
										OFFSET 0.085205 -0.600235 3.826079
										CHANNELS 3 Zrotation Xrotation Yrotation
										JOINT rThumb3
										{
											OFFSET -1.255478 -0.879211 2.439162
											CHANNELS 3 Zrotation Xrotation Yrotation
											End Site
											{
												OFFSET -2.963715 0.538574 4.059553
											}
										}
									}
								}
								JOINT rCarpal1
								{
									OFFSET -0.855530 1.026047 1.621985
									CHANNELS 3 Zrotation Xrotation Yrotation
									JOINT rIndex1
									{
										OFFSET -3.951324 0.390884 3.873290
										CHANNELS 3 Zrotation Xrotation Yrotation
										JOINT rIndex2
										{
											OFFSET -3.071884 -1.259598 2.506104
											CHANNELS 3 Zrotation Xrotation Yrotation
											JOINT rIndex3
											{
												OFFSET -1.394112 -1.446640 1.203302
												CHANNELS 3 Zrotation Xrotation Yrotation
												End Site
												{
													OFFSET -3.392448 -1.258026 0.533405
												}
											}
										}
									}
									JOINT rMid1
									{
										OFFSET -5.422974 0.107910 2.002650
										CHANNELS 3 Zrotation Xrotation Yrotation
										JOINT rMid2
										{
											OFFSET -3.599533 -1.323776 2.090647
											CHANNELS 3 Zrotation Xrotation Yrotation
											JOINT rMid3
											{
												OFFSET -1.360191 -1.598495 1.068055
												CHANNELS 3 Zrotation Xrotation Yrotation
												End Site
												{
													OFFSET -4.087769 -0.460876 0.069540
												}
											}
										}
									}
								}
								JOINT rCarpal2
								{
									OFFSET -1.942749 0.556229 -0.337217
									CHANNELS 3 Zrotation Xrotation Yrotation
									JOINT rRing1
									{
										OFFSET -4.762787 -0.121170 2.349089
										CHANNELS 3 Zrotation Xrotation Yrotation
										JOINT rRing2
										{
											OFFSET -3.380348 -1.337097 1.356700
											CHANNELS 3 Zrotation Xrotation Yrotation
											JOINT rRing3
											{
												OFFSET -1.430290 -1.499649 0.914224
												CHANNELS 3 Zrotation Xrotation Yrotation
												End Site
												{
													OFFSET -1.783272 -2.215851 -0.391895
												}
											}
										}
									}
									JOINT rPinky1
									{
										OFFSET -5.232559 -1.313721 0.336493
										CHANNELS 3 Zrotation Xrotation Yrotation
										JOINT rPinky2
										{
											OFFSET -2.217606 -1.389603 0.800693
											CHANNELS 3 Zrotation Xrotation Yrotation
											JOINT rPinky3
											{
												OFFSET -0.886887 -1.462280 0.774199
												CHANNELS 3 Zrotation Xrotation Yrotation
												End Site
												{
													OFFSET 14.139406 -2.625778 0.472826
												}
											}
										}
									}
								}
							}
						}
					}
				}
				JOINT lCollar
				{
					OFFSET 2.109295 21.452370 3.768136
					CHANNELS 3 Zrotation Xrotation Yrotation
					JOINT lShldr
					{
						OFFSET 11.491621 -2.568573 -4.940255
						CHANNELS 3 Zrotation Xrotation Yrotation
						JOINT lForeArm
						{
							OFFSET 28.789030 -0.213806 2.098380
							CHANNELS 3 Zrotation Xrotation Yrotation
							JOINT lHand
							{
								OFFSET 22.260895 -0.869583 10.391586
								CHANNELS 3 Zrotation Xrotation Yrotation
								JOINT lThumb1
								{
									OFFSET 0.628075 0.137405 2.362409
									CHANNELS 3 Zrotation Xrotation Yrotation
									JOINT lThumb2
									{
										OFFSET -0.085205 -0.600235 3.826079
										CHANNELS 3 Zrotation Xrotation Yrotation
										JOINT lThumb3
										{
											OFFSET 1.255478 -0.879211 2.439162
											CHANNELS 3 Zrotation Xrotation Yrotation
											End Site
											{
												OFFSET 2.963715 0.538574 4.059553
											}
										}
									}
								}
								JOINT lCarpal1
								{
									OFFSET 0.855530 1.026047 1.621985
									CHANNELS 3 Zrotation Xrotation Yrotation
									JOINT lIndex1
									{
										OFFSET 3.951324 0.390884 3.873290
										CHANNELS 3 Zrotation Xrotation Yrotation
										JOINT lIndex2
										{
											OFFSET 3.071884 -1.259598 2.506104
											CHANNELS 3 Zrotation Xrotation Yrotation
											JOINT lIndex3
											{
												OFFSET 1.394112 -1.446640 1.203302
												CHANNELS 3 Zrotation Xrotation Yrotation
												End Site
												{
													OFFSET 3.392448 -1.258026 0.533405
												}
											}
										}
									}
									JOINT lMid1
									{
										OFFSET 5.422974 0.107910 2.002650
										CHANNELS 3 Zrotation Xrotation Yrotation
										JOINT lMid2
										{
											OFFSET 3.599533 -1.323776 2.090647
											CHANNELS 3 Zrotation Xrotation Yrotation
											JOINT lMid3
											{
												OFFSET 1.360191 -1.598495 1.068055
												CHANNELS 3 Zrotation Xrotation Yrotation
												End Site
												{
													OFFSET 4.087769 -0.460876 0.069540
												}
											}
										}
									}
								}
								JOINT lCarpal2
								{
									OFFSET 1.942749 0.556229 -0.337217
									CHANNELS 3 Zrotation Xrotation Yrotation
									JOINT lRing1
									{
										OFFSET 4.762787 -0.121170 2.349089
										CHANNELS 3 Zrotation Xrotation Yrotation
										JOINT lRing2
										{
											OFFSET 3.380348 -1.337097 1.356700
											CHANNELS 3 Zrotation Xrotation Yrotation
											JOINT lRing3
											{
												OFFSET 1.430290 -1.499649 0.914224
												CHANNELS 3 Zrotation Xrotation Yrotation
												End Site
												{
													OFFSET 1.783272 -2.215851 -0.391895
												}
											}
										}
									}
									JOINT lPinky1
									{
										OFFSET 5.232559 -1.313721 0.336493
										CHANNELS 3 Zrotation Xrotation Yrotation
										JOINT lPinky2
										{
											OFFSET 2.217606 -1.389603 0.800693
											CHANNELS 3 Zrotation Xrotation Yrotation
											JOINT lPinky3
											{
												OFFSET 0.886887 -1.462280 0.774199
												CHANNELS 3 Zrotation Xrotation Yrotation
												End Site
												{
													OFFSET -10.295957 -17.050110 17.461308
												}
											}
										}
									}
								}
							}
						}
					}
				}
				JOINT rPectoral
				{
					OFFSET -6.358840 6.360771 6.369920
					CHANNELS 3 Zrotation Xrotation Yrotation
					End Site
					{
						OFFSET 10.295957 -17.050110 17.461308
					}
				}
				JOINT lPectoral
				{
					OFFSET 6.358840 6.360771 6.369920
					CHANNELS 3 Zrotation Xrotation Yrotation
					End Site
					{
						OFFSET 10.295957 -17.050110 17.461308
					}
				}
			}
		}
	}
}
MOTION
Frames:	4
Frame Time:	0.0333333
27.907600 0.962895 -0.939894 -1.177073 6.951810 -3.058047 0.000000 0.000000 0.000000 4.871531 -11.351213 0.888221 -2.914283 9.739666 -8.072256 2.021608 -20.809572 -2.285610 4.331730 -7.895041 1.074060 0.000000 0.000000 0.000000 -12.647177 -12.555300 3.191179 0.320251 8.654167 7.256808 -2.549420 -10.413177 8.985424 0.372828 -17.899843 -3.280606 0.000000 0.000000 0.000000 -1.977957 -8.749955 1.827586 0.000000 0.000000 0.000000 7.134821 9.859313 -0.626412 4.120978 -19.052029 -1.077531 -6.579707 11.681184 1.783986 0.000000 0.000000 0.000000 0.000000 0.000000 0.000000 0.000000 0.000000 0.000000 0.000000 0.000000 0.000000 0.000000 0.000000 0.000000 0.002392 18.987135 -0.000400 0.000000 16.984877 0.000000 0.000000 5.997298 0.000000 -0.003221 -13.991775 -0.001883 0.000000 0.000000 0.000000 0.000000 0.000000 0.000000 9.723415 -0.655893 -7.335889 34.305660 37.859196 2.879209 20.637371 -9.926991 31.375759 18.267323 14.124816 15.639337 -17.148350 17.194746 -11.029366 -9.531779 -11.921503 -5.780741 -18.043013 22.924831 10.736142 0.000000 0.000000 0.000000 -12.021268 -10.677489 -18.422935 -8.038124 -6.776433 -0.341223 -7.670000 -5.993041 -1.344288 -10.331261 -4.002215 -7.726849 -1.879266 2.563233 -3.988344 3.432758 6.201186 -1.448079 0.000000 0.000000 0.000000 -6.661311 -6.994803 -1.586421 14.095617 10.143840 -6.811356 11.358913 10.799247 -0.440441 -22.173029 -24.229609 -15.587299 44.612175 22.017612 -9.860237 39.598415 22.097733 2.296257 -18.042341 0.394619 1.901795 -45.063736 37.210014 -11.009870 -1.842945 -10.289358 12.327593 -6.804506 4.329797 -5.943544 20.278130 15.997495 11.245280 5.401957 -14.237324 -9.868756 16.386475 20.674137 -16.306648 0.000000 0.000000 0.000000 10.357974 -8.512601 17.306118 6.640686 -3.731454 1.675739 12.634957 -9.968493 2.356183 8.647410 -3.307333 7.176097 0.594762 3.049653 3.815826 -0.477300 4.595424 2.175196 0.000000 0.000000 0.000000 4.121642 -6.962530 -0.562991 -16.377953 9.700351 7.263905 -1.274504 8.359025 3.952809 18.869102 -24.505692 13.530671 -48.464844 21.907703 10.693366 -34.310612 26.750092 1.841065 0.244328 -0.012803 -0.717522 -0.087894 -0.004252 0.258071 
29.152723 1.044087 -0.862826 -0.957287 6.726339 -3.828209 0.000000 0.000000 0.000000 3.965266 -10.094823 1.588415 -2.988214 7.886335 -7.314940 2.458371 -20.077049 -2.891704 4.517658 -7.561800 1.042431 0.000000 0.000000 0.000000 -12.804072 -12.756589 2.404608 0.058797 9.321439 6.398242 -3.710247 -9.659963 8.788775 0.352215 -18.000093 -3.296214 0.000000 0.000000 0.000000 -1.815863 -8.205939 2.001714 0.000000 0.000000 0.000000 6.975656 9.556978 -0.471137 4.088153 -19.388390 -0.979045 -6.782716 11.811875 1.935106 0.000000 0.000000 0.000000 0.000000 0.000000 0.000000 0.000000 0.000000 0.000000 0.000000 0.000000 0.000000 0.000000 0.000000 0.000000 0.002392 18.987135 -0.000400 0.000000 16.984877 0.000000 0.000000 5.997298 0.000000 -0.003221 -13.991775 -0.001883 0.000000 0.000000 0.000000 0.000000 0.000000 0.000000 10.746786 -0.672386 -7.232176 36.734364 34.313526 2.842945 17.675232 -12.797614 24.508102 17.541857 13.341511 14.522311 -15.328627 21.755375 -8.850898 -9.890710 -11.659440 -7.245869 -18.866968 24.448835 9.610971 0.000000 0.000000 0.000000 -11.354666 -8.963548 -17.505585 -7.724992 -6.475556 -0.292883 -7.657415 -5.966955 -1.305996 -9.659097 -3.695138 -7.590280 -1.672653 2.701978 -3.976151 3.521042 6.268962 -1.442167 0.000000 0.000000 0.000000 -5.509222 -6.679594 -1.170558 14.878312 10.483674 -6.862153 11.611249 10.928204 -0.448887 -20.896700 -24.278948 -15.018598 46.988274 22.694393 -10.325284 40.772137 22.738695 2.181531 -17.962654 0.413844 1.812246 -44.713882 37.164341 -11.464598 -1.740565 -9.670144 12.398128 -7.252063 4.586303 -6.123072 20.256527 16.021303 11.234052 5.397571 -14.238882 -9.884183 16.388876 20.677786 -16.299932 0.000000 0.000000 0.000000 10.365170 -8.515714 17.303837 6.649430 -3.739587 1.676810 12.634957 -9.968493 2.356183 8.647410 -3.307333 7.176097 0.594762 3.049653 3.815826 -0.477300 4.595424 2.175196 0.000000 0.000000 0.000000 4.173308 -6.980446 -0.554250 -16.377953 9.700351 7.263905 -1.274504 8.359025 3.952809 18.877151 -24.504734 13.534296 -48.420860 21.896942 10.682663 -34.297356 26.744598 1.839592 0.242817 -0.012714 -0.713084 -0.084729 -0.004092 0.248779 
29.918148 1.138336 -0.848894 -0.782967 6.868100 -4.223868 0.000000 0.000000 0.000000 3.440714 -9.229375 2.079862 -3.098213 5.907409 -6.371769 2.398036 -19.145342 -4.117108 4.609571 -7.415708 1.026119 0.000000 0.000000 0.000000 -12.761078 -13.335444 1.590878 0.071224 10.296694 5.324730 -5.009083 -9.698408 8.268930 -0.235257 -16.713818 -3.134137 0.000000 0.000000 0.000000 -2.078004 -8.059780 1.688127 0.000000 0.000000 0.000000 7.685319 9.428558 -0.877100 3.070780 -20.028120 -0.409693 -6.214626 12.208850 2.125624 0.000000 0.000000 0.000000 0.000000 0.000000 0.000000 0.000000 0.000000 0.000000 0.000000 0.000000 0.000000 0.000000 0.000000 0.000000 0.002392 18.987135 -0.000400 0.000000 16.984877 0.000000 0.000000 5.997298 0.000000 -0.003221 -13.991775 -0.001883 0.000000 0.000000 0.000000 0.000000 0.000000 0.000000 11.217392 -0.631575 -6.928679 38.616016 31.645086 3.136630 14.684637 -14.206017 19.214333 16.836605 12.447659 12.859547 -15.354445 21.723454 -8.863473 -9.868125 -11.676032 -7.154544 -18.854662 24.426437 9.645926 0.000000 0.000000 0.000000 -11.354666 -8.963548 -17.505585 -7.697616 -6.449687 -0.289202 -7.620678 -5.931765 -1.299375 -9.659097 -3.695138 -7.590280 -1.672653 2.701978 -3.976151 3.521042 6.268962 -1.442167 0.000000 0.000000 0.000000 -5.528336 -6.687228 -1.173994 14.810700 10.455863 -6.858735 11.611249 10.928204 -0.448887 -20.912830 -24.280220 -15.026828 46.717567 22.618189 -10.270979 40.715637 22.708452 2.187570 -18.160841 0.416335 1.807405 -44.844620 36.890377 -11.274709 -2.099714 -10.185784 12.118005 -6.753707 4.347589 -6.582909 20.235815 16.043970 11.223378 5.418162 -14.231364 -9.811267 16.408369 20.700481 -16.252920 0.000000 0.000000 0.000000 10.371953 -8.518768 17.301672 6.657822 -3.747551 1.677952 12.634957 -9.968493 2.356183 8.647410 -3.307333 7.176097 0.594762 3.049653 3.815826 -0.477300 4.595424 2.175196 0.000000 0.000000 0.000000 4.223485 -6.997834 -0.545710 -16.377953 9.700351 7.263905 -1.274504 8.359025 3.952809 18.885103 -24.503786 13.537588 -48.230305 21.851921 10.638171 -34.241890 26.716244 1.835116 0.233876 -0.012192 -0.686821 -0.085203 -0.004116 0.250169 
30.591522 1.217856 -0.802271 -0.627539 7.345088 -4.697017 0.000000 0.000000 0.000000 3.104913 -8.803820 2.031748 -3.547993 4.103116 -6.976054 3.250423 -18.111633 -3.214026 4.591138 -7.457891 1.032224 0.000000 0.000000 0.000000 -12.647696 -13.977711 0.786375 0.821509 10.742278 3.158711 -5.741748 -10.384189 7.298606 -1.449443 -14.063437 -2.768007 0.000000 0.000000 0.000000 -1.501153 -9.191707 0.701522 0.000000 0.000000 0.000000 7.063991 10.809628 -1.503163 2.385044 -20.737886 0.605526 -5.285692 12.221670 2.767922 0.000000 0.000000 0.000000 0.000000 0.000000 0.000000 0.000000 0.000000 0.000000 0.000000 0.000000 0.000000 0.000000 0.000000 0.000000 0.002392 18.987135 -0.000400 0.000000 16.984877 0.000000 0.000000 5.997298 0.000000 -0.003221 -13.991775 -0.001883 0.000000 0.000000 0.000000 0.000000 0.000000 0.000000 11.817450 -0.522190 -6.262347 40.542625 30.066284 4.603940 11.693345 -16.901232 13.665934 17.406693 12.511441 11.872906 -15.411551 21.653507 -8.888484 -9.831908 -11.703422 -7.006088 -18.834286 24.390799 9.702406 0.000000 0.000000 0.000000 -11.354666 -8.963548 -17.505585 -7.576667 -6.339427 -0.273776 -7.559911 -5.875150 -1.290178 -9.659097 -3.695138 -7.590280 -1.672653 2.701978 -3.976151 3.521042 6.268962 -1.442167 0.000000 0.000000 0.000000 -5.559015 -6.700757 -1.179824 14.701465 10.409511 -6.854101 11.611249 10.928204 -0.448887 -20.953157 -24.282183 -15.046195 46.277916 22.496010 -10.183792 40.623760 22.658588 2.195999 -17.745199 0.386461 1.899970 -45.718819 35.652317 -10.347538 -2.106041 -9.728002 11.409105 -6.403725 4.071092 -6.277378 20.214958 16.067102 11.212340 5.453828 -14.218301 -9.686133 16.427372 20.723749 -16.205444 0.000000 0.000000 0.000000 10.378820 -8.521892 17.299473 6.666273 -3.755520 1.679006 12.634957 -9.968493 2.356183 8.647410 -3.307333 7.176097 0.594762 3.049653 3.815826 -0.477300 4.595424 2.175196 0.000000 0.000000 0.000000 4.273622 -7.015262 -0.537126 -16.377953 9.700351 7.263905 -1.274504 8.359025 3.952809 18.892740 -24.502975 13.541177 -47.900730 21.773449 10.561600 -34.146786 26.666227 1.827098 0.213449 -0.011015 -0.626818 -0.086914 -0.004203 0.255195 
